{"glyphs":{":":{"x_min":0,"x_max":193,"ha":193,"o":"m 133 370 l 275 370 l 317 508 l 174 508 z m 25 0 l 167 0 l 209 138 l 66 138 z"},"$":{"x_min":0,"x_max":773,"ha":773,"o":"m 386 3 b 581 3 740 162 740 357 b 740 552 581 711 386 711 b 191 711 33 552 33 357 b 33 162 191 3 386 3 z m 386 51 b 218 51 80 189 80 357 b 80 525 218 662 386 662 b 556 662 691 525 691 357 b 691 189 556 51 386 51 z m 386 72 b 542 72 670 200 670 357 b 670 513 542 639 386 639 b 230 639 101 513 101 357 b 101 200 230 72 386 72 z m 386 116 b 307 116 253 178 226 223 b 334 196 440 195 546 223 b 519 178 464 116 386 116 z m 216 238 l 161 324 l 611 324 l 557 238 b 442 212 329 212 216 238 z m 349 357 l 387 448 l 425 357 z m 294 427 l 220 519 b 215 525 270 563 278 553 b 300 521 308 478 327 441 b 328 438 299 421 294 427 z m 480 427 b 473 421 443 438 448 441 b 464 478 470 521 495 553 b 503 563 557 525 552 519 z m 645 12 l 656 12 l 656 50 l 671 50 l 671 61 l 630 61 l 630 50 l 645 50 z m 676 12 l 685 12 l 685 50 l 695 12 l 704 12 l 714 50 l 714 12 l 723 12 l 723 61 l 709 61 l 700 23 l 691 61 l 676 61 z"},"?":{"x_min":0,"x_max":427,"ha":427,"o":"m 374 620 l 412 620 b 435 620 430 606 425 588 l 373 414 b 367 393 356 389 342 389 l 208 389 l 147 182 l 287 182 l 320 296 l 424 296 b 475 296 497 325 503 346 l 587 629 b 602 679 585 727 518 727 l 336 727 b 297 727 241 731 221 666 l 175 508 l 325 508 l 351 597 b 356 613 359 620 374 620 z m 93 0 l 235 0 l 277 138 l 134 138 z"},"<":{"x_min":0,"x_max":377,"ha":377,"o":"m 621 884 l 664 1029 l 315 1029 l 272 884 l 362 884 l 144 145 l 67 145 l 25 0 l 360 0 l 403 145 l 313 145 l 531 884 z"},"'":{"x_min":0,"x_max":179,"ha":179,"o":"m 164 423 l 250 423 l 377 727 l 232 727 z"},"=":{"x_min":0,"x_max":470,"ha":470,"o":"m 746 1029 l 399 1029 l 307 884 l 534 884 l 328 181 b 320 152 314 145 292 145 l 253 145 b 235 145 239 158 242 166 l 337 488 l 169 488 l 63 130 b 38 45 88 0 158 0 l 328 0 b 398 0 450 26 473 103 z"},"a":{"x_min":0,"x_max":454,"ha":454,"o":"m 335 240 l 260 240 l 392 569 z m 167 0 l 219 131 l 318 131 l 295 0 l 445 0 l 544 727 l 329 727 l 10 0 z"},"L":{"x_min":0,"x_max":381,"ha":381,"o":"m 242 155 l 499 1029 l 328 1029 l 49 82 b 33 26 71 0 99 0 l 333 0 l 418 155 z"},"3":{"x_min":0,"x_max":355,"ha":355,"o":"m 338 596 b 360 596 361 587 355 568 l 323 460 b 316 438 303 436 288 436 l 186 436 l 148 307 l 247 307 b 269 307 274 291 268 273 l 234 159 b 227 138 216 138 201 138 l 74 138 l 33 0 l 243 0 b 310 0 344 25 358 72 l 417 274 b 429 312 426 360 368 368 b 431 372 452 396 464 440 l 521 633 b 537 687 508 727 443 727 l 233 727 l 195 596 z"},";":{"x_min":0,"x_max":193,"ha":193,"o":"m 133 370 l 275 370 l 317 508 l 174 508 z m 25 0 l 97 0 l 66 -101 l 167 0 l 209 138 l 66 138 z"},"J":{"x_min":0,"x_max":470,"ha":470,"o":"m 703 884 l 746 1029 l 399 1029 l 307 884 z m 527 860 l 328 181 b 320 152 314 145 292 145 l 253 145 b 235 145 239 158 242 166 l 337 488 l 169 488 l 63 130 b 38 45 88 0 158 0 l 328 0 b 398 0 450 27 473 103 l 696 860 z"},"V":{"x_min":0,"x_max":449,"ha":449,"o":"m 186 0 l 347 0 l 784 1029 l 615 1029 l 395 457 l 492 1029 l 327 1029 z"},"\"":{"x_min":0,"x_max":357,"ha":357,"o":"m 410 727 l 342 423 l 428 423 l 555 727 z m 232 727 l 164 423 l 250 423 l 378 727 z"},"7":{"x_min":0,"x_max":378,"ha":378,"o":"m 574 727 l 233 727 l 194 596 l 376 596 l 95 0 l 254 0 l 551 648 z"},"S":{"x_min":0,"x_max":461,"ha":461,"o":"m 195 574 l 158 449 l 387 449 b 400 449 400 443 398 435 l 317 161 b 312 143 303 138 285 138 l 247 138 b 235 138 225 141 230 158 l 268 284 l 109 284 l 59 112 b 39 46 77 0 134 0 l 331 0 b 382 0 439 11 461 84 l 563 431 b 593 532 545 574 468 574 z m 369 598 l 449 873 b 454 891 462 896 480 896 l 543 896 l 487 707 l 656 745 l 739 1029 l 428 1029 b 377 1029 325 1016 304 943 l 202 598 z"},"}":{"x_min":0,"x_max":259,"ha":259,"o":"m 208 1029 l 165 884 l 319 884 l 59 0 l 228 0 l 488 884 l 636 884 l 679 1029 l 208 1029 z"},"Z":{"x_min":0,"x_max":471,"ha":471,"o":"m 754 1029 l 357 1029 l 284 884 l 675 884 z m 55 0 l 441 0 l 499 155 l 317 155 l 663 860 l 485 860 z"},"x":{"x_min":0,"x_max":435,"ha":435,"o":"m 620 727 l 468 727 l 384 443 b 378 421 369 417 354 417 l 327 417 b 311 417 302 421 307 440 l 391 727 l 239 727 l 154 438 b 142 398 155 364 202 364 b 138 361 121 322 109 285 l 25 0 l 177 0 l 263 289 b 268 306 274 310 296 310 l 319 310 b 341 310 342 298 338 284 l 254 0 l 406 0 l 488 278 b 501 321 484 360 436 363 b 487 362 518 382 529 418 z"},")":{"x_min":0,"x_max":773,"ha":773,"o":"m 386 3 b 581 3 740 162 740 357 b 740 552 581 711 386 711 b 191 711 33 552 33 357 b 33 162 191 3 386 3 z m 386 51 b 218 51 80 189 80 357 b 80 525 218 662 386 662 b 556 662 691 525 691 357 b 691 189 556 51 386 51 z m 386 72 b 542 72 670 200 670 357 b 670 513 542 639 386 639 b 230 639 101 513 101 357 b 101 200 230 72 386 72 z m 386 116 b 307 116 253 178 226 223 b 334 196 440 195 546 223 b 519 178 464 116 386 116 z m 216 238 l 161 324 l 611 324 l 557 238 b 442 212 329 212 216 238 z m 349 357 l 387 448 l 425 357 z m 294 427 l 220 519 b 215 525 270 563 278 553 b 300 521 308 478 327 441 b 328 438 299 421 294 427 z m 480 427 b 473 421 443 438 448 441 b 464 478 470 521 495 553 b 503 563 557 525 552 519 z m 645 12 l 656 12 l 656 50 l 671 50 l 671 61 l 630 61 l 630 50 l 645 50 z m 676 12 l 685 12 l 685 50 l 695 12 l 704 12 l 714 50 l 714 12 l 723 12 l 723 61 l 709 61 l 700 23 l 691 61 l 676 61 z"},"&":{"x_min":0,"x_max":581,"ha":581,"o":"m 348 187 l 284 139 b 274 131 250 129 234 130 b 220 131 216 136 222 155 l 268 310 b 272 327 282 338 294 338 z m 676 456 l 545 456 l 518 325 b 517 318 513 311 503 303 l 470 278 l 392 506 b 388 517 385 534 387 543 l 394 567 b 402 594 422 596 447 596 l 590 596 l 629 727 l 428 727 b 287 727 263 634 238 515 b 233 481 251 451 262 427 b 197 427 143 397 120 323 l 66 140 b 40 50 98 0 170 0 l 255 0 b 291 0 317 12 391 80 l 415 28 b 423 11 438 0 459 0 l 558 0 l 608 138 l 525 138 b 521 138 517 139 516 144 l 508 167 l 616 249 b 628 258 636 272 640 290 z"},"_":{"x_min":0,"x_max":364,"ha":364,"o":"m -10 -143 l 316 -143 l 354 -14 l 28 -14 z"},"v":{"x_min":0,"x_max":410,"ha":410,"o":"m 130 0 l 293 0 l 612 727 l 457 727 l 319 385 l 377 727 l 226 727 z"},"O":{"x_min":0,"x_max":474,"ha":474,"o":"m 332 171 b 327 154 319 145 302 145 l 261 145 b 244 145 238 155 243 171 l 446 860 l 278 860 l 66 140 b 39 48 91 0 163 0 l 317 0 b 387 0 457 24 482 109 l 715 910 b 735 978 702 1029 626 1029 l 297 1029 l 205 884 l 501 884 b 525 884 536 874 529 849 z"},"(":{"x_min":0,"x_max":773,"ha":773,"o":"m 386 3 b 581 3 740 162 740 357 b 740 552 581 711 386 711 b 191 711 33 552 33 357 b 33 162 191 3 386 3 z m 386 51 b 218 51 80 189 80 357 b 80 525 218 662 386 662 b 556 662 691 525 691 357 b 691 189 556 51 386 51 z m 386 72 b 542 72 670 200 670 357 b 670 513 542 639 386 639 b 230 639 101 513 101 357 b 101 200 230 72 386 72 z m 386 116 b 307 116 253 178 226 223 b 334 196 440 195 546 223 b 519 178 464 116 386 116 z m 216 238 l 161 324 l 611 324 l 557 238 b 442 212 329 212 216 238 z m 349 357 l 387 448 l 425 357 z m 294 427 l 220 519 b 215 525 270 563 278 553 b 300 521 308 478 327 441 b 328 438 299 421 294 427 z m 480 427 b 473 421 443 438 448 441 b 464 478 470 521 495 553 b 503 563 557 525 552 519 z m 645 12 l 656 12 l 656 50 l 671 50 l 671 61 l 630 61 l 630 50 l 645 50 z m 676 12 l 685 12 l 685 50 l 695 12 l 704 12 l 714 50 l 714 12 l 723 12 l 723 61 l 709 61 l 700 23 l 691 61 l 676 61 z"},"C":{"x_min":0,"x_max":427,"ha":427,"o":"m 732 1029 l 414 1029 b 358 1029 323 1013 305 952 l 70 150 b 39 44 103 0 179 0 l 375 0 l 459 155 l 277 155 b 253 155 241 165 249 191 l 449 873 b 454 891 462 896 480 896 l 538 896 l 482 707 l 648 745 z"},"W":{"x_min":0,"x_max":711,"ha":711,"o":"m 186 0 l 340 0 l 513 448 l 440 0 l 591 0 l 1041 1029 l 863 1029 l 665 514 l 747 1029 l 615 1029 l 412 514 l 494 1029 l 322 1029 z"},"A":{"x_min":0,"x_max":655,"ha":655,"o":"m 686 185 l 468 22 l 461 0 l 630 0 z m 678 207 l 570 370 l 543 281 l 368 281 l 659 679 l 579 402 l 697 222 l 933 1029 l 720 1029 l -171 -182 l 28 -182 l 268 149 l 505 149 l 478 59 z"},"f":{"x_min":0,"x_max":338,"ha":338,"o":"m 25 0 l 177 0 l 267 307 l 404 307 l 442 436 l 305 436 l 352 596 l 491 596 l 530 727 l 239 727 z"},"Q":{"x_min":0,"x_max":474,"ha":474,"o":"m 115 -123 l 281 -123 l 320 0 b 390 0 454 24 479 109 l 715 910 b 735 978 702 1029 626 1029 l 297 1029 l 205 884 l 501 884 b 525 884 536 874 529 849 l 329 171 b 324 153 311 145 294 145 l 262 145 b 245 145 238 155 243 171 l 446 860 l 278 860 l 66 140 b 39 48 84 0 156 0 z"},"w":{"x_min":0,"x_max":607,"ha":607,"o":"m 226 727 l 130 0 l 273 0 l 387 265 l 344 0 l 490 0 l 809 727 l 654 727 l 516 393 l 574 727 l 458 727 l 320 393 l 377 727 l 226 727 z"},"-":{"x_min":0,"x_max":246,"ha":246,"o":"m 115 307 l 311 307 l 349 436 l 153 436 z"},"E":{"x_min":0,"x_max":380,"ha":380,"o":"m 278 860 l 25 0 l 333 0 l 418 155 l 239 155 l 325 449 l 487 449 l 530 597 l 369 597 l 446 860 z m 655 1029 l 297 1029 l 205 884 l 613 884 z"},"s":{"x_min":0,"x_max":375,"ha":375,"o":"m 502 596 l 541 727 l 308 727 b 272 727 236 717 219 666 l 136 384 b 121 331 136 296 199 296 l 279 296 b 288 296 288 292 286 286 l 251 163 b 245 145 241 138 213 138 l 87 138 l 46 0 l 293 0 b 324 0 357 15 365 44 l 448 326 b 469 397 435 427 381 427 l 300 427 l 343 575 b 348 591 359 596 370 596 z"},">":{"x_min":0,"x_max":471,"ha":471,"o":"m 503 884 l 55 0 l 441 0 l 499 155 l 317 155 l 751 1029 l 327 1029 l 284 884 z"},"l":{"x_min":0,"x_max":365,"ha":365,"o":"m 25 0 l 339 0 l 391 138 l 227 138 l 400 727 l 239 727 z"},"8":{"x_min":0,"x_max":432,"ha":432,"o":"m 162 460 b 150 422 150 375 208 367 b 145 365 124 338 112 294 l 55 102 b 38 44 68 0 133 0 l 320 0 b 387 0 417 34 431 81 l 489 281 b 501 319 499 369 440 375 b 503 379 523 403 535 447 l 590 633 b 606 687 575 727 510 727 l 335 727 b 268 727 234 702 220 655 z m 409 610 b 431 610 434 601 428 582 l 387 443 b 380 421 371 421 356 421 l 323 421 b 301 421 301 435 307 453 l 348 588 b 355 609 364 610 379 610 z m 238 121 b 216 121 212 130 218 149 l 263 300 b 270 322 280 324 295 324 l 327 324 b 349 324 350 312 344 294 l 299 143 b 293 122 281 121 266 121 z"},"\\":{"x_min":0,"x_max":380,"ha":380,"o":"m 655 1029 l 275 1029 l 290 900 l 49 82 b 33 26 73 0 101 0 l 333 0 l 418 155 l 239 155 l 325 449 l 487 449 l 530 597 l 369 597 l 453 884 l 613 884 z"},"e":{"x_min":0,"x_max":334,"ha":334,"o":"m 25 0 l 306 0 l 356 138 l 217 138 l 267 307 l 398 307 l 436 436 l 305 436 l 352 596 l 486 596 l 525 727 l 239 727 z"},"b":{"x_min":0,"x_max":424,"ha":424,"o":"m 299 421 l 355 610 l 404 610 b 427 610 430 598 424 580 l 385 448 b 378 426 368 421 348 421 l 299 421 z m 25 0 l 310 0 b 376 0 410 30 424 77 l 484 278 b 495 316 485 360 434 363 b 485 361 512 388 519 413 l 583 632 b 598 684 579 727 510 727 l 239 727 l 25 0 z m 211 121 l 271 324 l 319 324 b 341 324 345 310 340 292 l 297 146 b 290 124 280 121 265 121 l 211 121 z"},"%":{"x_min":0,"x_max":773,"ha":773,"o":"m 386 3 b 581 3 740 162 740 357 b 740 552 581 711 386 711 b 191 711 33 552 33 357 b 33 162 191 3 386 3 z m 386 51 b 218 51 80 189 80 357 b 80 525 218 662 386 662 b 556 662 691 525 691 357 b 691 189 556 51 386 51 z m 386 72 b 542 72 670 200 670 357 b 670 513 542 639 386 639 b 230 639 101 513 101 357 b 101 200 230 72 386 72 z m 386 116 b 307 116 253 178 226 223 b 334 196 440 195 546 223 b 519 178 464 116 386 116 z m 216 238 l 161 324 l 611 324 l 557 238 b 442 212 329 212 216 238 z m 349 357 l 387 448 l 425 357 z m 294 427 l 220 519 b 215 525 270 563 278 553 b 300 521 308 478 327 441 b 328 438 299 421 294 427 z m 480 427 b 473 421 443 438 448 441 b 464 478 470 521 495 553 b 503 563 557 525 552 519 z m 645 12 l 656 12 l 656 50 l 671 50 l 671 61 l 630 61 l 630 50 l 645 50 z m 676 12 l 685 12 l 685 50 l 695 12 l 704 12 l 714 50 l 714 12 l 723 12 l 723 61 l 709 61 l 700 23 l 691 61 l 676 61 z"},"m":{"x_min":0,"x_max":551,"ha":551,"o":"m 328 177 l 494 404 l 375 0 l 526 0 l 741 727 l 585 727 l 415 473 l 389 727 l 239 727 l 25 0 l 176 0 l 296 404 z"},"#":{"x_min":0,"x_max":773,"ha":773,"o":"m 386 3 b 581 3 740 162 740 357 b 740 552 581 711 386 711 b 191 711 33 552 33 357 b 33 162 191 3 386 3 z m 386 51 b 218 51 80 189 80 357 b 80 525 218 662 386 662 b 556 662 691 525 691 357 b 691 189 556 51 386 51 z m 386 72 b 542 72 670 200 670 357 b 670 513 542 639 386 639 b 230 639 101 513 101 357 b 101 200 230 72 386 72 z m 386 116 b 307 116 253 178 226 223 b 334 196 440 195 546 223 b 519 178 464 116 386 116 z m 216 238 l 161 324 l 611 324 l 557 238 b 442 212 329 212 216 238 z m 349 357 l 387 448 l 425 357 z m 294 427 l 220 519 b 215 525 270 563 278 553 b 300 521 308 478 327 441 b 328 438 299 421 294 427 z m 480 427 b 473 421 443 438 448 441 b 464 478 470 521 495 553 b 503 563 557 525 552 519 z m 645 12 l 656 12 l 656 50 l 671 50 l 671 61 l 630 61 l 630 50 l 645 50 z m 676 12 l 685 12 l 685 50 l 695 12 l 704 12 l 714 50 l 714 12 l 723 12 l 723 61 l 709 61 l 700 23 l 691 61 l 676 61 z"},",":{"x_min":0,"x_max":192,"ha":192,"o":"m 25 0 l 97 0 l 66 -101 l 167 0 l 209 138 l 66 138 z"},"n":{"x_min":0,"x_max":413,"ha":413,"o":"m 25 0 l 167 0 l 254 290 l 267 0 l 388 0 l 602 727 l 456 727 l 373 446 l 368 727 l 239 727 z"},"h":{"x_min":0,"x_max":427,"ha":427,"o":"m 616 727 l 466 727 l 380 436 l 304 436 l 389 727 l 239 727 l 25 0 l 175 0 l 266 307 l 342 307 l 252 0 l 402 0 z"},"z":{"x_min":0,"x_max":366,"ha":366,"o":"m 344 596 l 39 0 l 340 0 l 392 138 l 266 138 l 562 727 l 231 727 l 192 596 z"},"B":{"x_min":0,"x_max":468,"ha":468,"o":"m 310 0 b 380 0 450 24 475 109 l 561 401 b 578 459 571 508 523 512 b 575 512 598 541 607 572 l 708 910 b 728 978 700 1029 624 1029 l 297 1029 l 205 884 l 506 884 b 530 884 540 869 533 844 l 470 627 b 460 595 447 592 426 592 l 368 592 l 446 860 l 278 860 l 25 0 z m 330 462 l 380 462 b 401 462 407 450 402 432 l 325 171 b 320 155 309 145 292 145 l 236 145 z"},"K":{"x_min":0,"x_max":470,"ha":470,"o":"m 319 425 l 150 425 l 25 0 l 193 0 z m 157 449 l 371 449 b 400 449 405 435 397 408 l 276 0 l 445 0 l 570 422 b 586 478 576 529 517 534 l 768 1029 l 595 1029 l 360 545 l 351 545 l 493 1029 l 328 1029 z"},"R":{"x_min":0,"x_max":468,"ha":468,"o":"m 356 552 l 446 860 l 278 860 l 25 0 l 193 0 l 318 422 l 368 422 b 389 422 395 410 390 392 l 274 0 l 442 0 l 549 361 b 566 419 559 468 511 472 b 563 472 586 501 595 532 l 708 910 b 728 978 700 1029 624 1029 l 297 1029 l 205 884 l 506 884 b 530 884 540 869 533 844 l 459 591 b 450 559 435 552 416 552 z"},"T":{"x_min":0,"x_max":222,"ha":222,"o":"m 280 860 l 27 0 l 195 0 l 449 860 z m 604 884 l 647 1029 l 196 1029 l 133 884 z"},"P":{"x_min":0,"x_max":468,"ha":468,"o":"m 324 443 l 446 860 l 278 860 l 25 0 l 193 0 l 286 313 l 425 312 b 525 311 550 380 563 423 l 708 910 b 728 978 700 1029 624 1029 l 297 1029 l 205 884 l 506 884 b 530 884 540 869 533 844 l 427 482 b 417 450 403 443 384 443 z"},"|":{"x_min":0,"x_max":380,"ha":380,"o":"m 655 1029 l 277 1029 l 290 900 l 25 0 l 333 0 l 418 155 l 239 155 l 325 449 l 485 449 l 531 597 l 369 597 l 453 884 l 613 884 z"},"t":{"x_min":0,"x_max":387,"ha":387,"o":"m 232 727 l 193 596 l 297 596 l 120 0 l 270 0 l 443 596 l 545 596 l 584 727 l 232 727 z"},"M":{"x_min":0,"x_max":717,"ha":717,"o":"m 695 860 l 527 860 l 274 0 l 442 0 z m 446 860 l 278 860 l 25 0 l 193 0 z m 523 0 l 691 0 l 959 910 b 979 978 947 1029 871 1029 l 297 1029 l 205 884 l 745 884 b 769 884 780 874 773 849 z"},"g":{"x_min":0,"x_max":422,"ha":422,"o":"m 316 727 b 268 727 235 713 219 659 l 65 135 b 37 39 94 0 162 0 l 255 0 l 239 -57 l 407 28 l 527 436 l 353 436 l 315 307 l 346 307 l 291 121 l 240 121 b 220 121 211 129 217 150 l 342 574 b 347 592 355 596 371 596 l 527 596 l 566 727 z"},"j":{"x_min":0,"x_max":415,"ha":415,"o":"m 54 99 b 36 35 76 0 125 0 l 309 0 b 358 0 395 19 411 73 l 604 727 l 315 727 l 261 596 l 417 596 l 285 146 b 279 126 275 121 259 121 l 215 121 b 202 121 203 130 205 136 l 258 314 l 118 314 z"},"i":{"x_min":0,"x_max":205,"ha":205,"o":"m 394 727 l 239 727 l 25 0 l 180 0 z"},"y":{"x_min":0,"x_max":433,"ha":433,"o":"m 211 227 l 145 0 l 287 0 l 353 227 l 396 227 b 457 227 483 257 497 305 l 622 727 l 471 727 l 363 361 b 357 342 351 336 332 336 l 297 336 b 277 336 277 348 282 364 l 390 727 l 239 727 l 116 312 b 100 259 120 227 172 227 z"},"@":{"x_min":0,"x_max":622,"ha":622,"o":"m 638 139 l 787 647 b 800 699 774 727 729 727 l 341 727 b 281 727 232 707 208 625 l 58 111 b 40 47 73 0 141 0 l 508 0 l 567 87 l 227 87 b 213 87 203 93 209 114 l 351 597 b 354 610 363 618 381 618 l 609 618 b 628 618 636 613 630 590 l 615 537 b 594 545 570 548 539 548 b 483 548 414 527 394 470 l 329 246 b 308 172 341 130 419 130 b 443 130 473 133 499 139 z m 476 242 b 470 242 460 246 464 260 l 515 435 b 519 449 527 453 539 453 l 590 453 l 528 242 z"},".":{"x_min":0,"x_max":192,"ha":192,"o":"m 25 0 l 167 0 l 209 138 l 66 138 z"},"p":{"x_min":0,"x_max":412,"ha":412,"o":"m 239 215 b 303 205 447 193 476 293 l 576 634 b 590 681 572 727 506 727 l 239 727 l 25 0 l 176 0 z m 271 325 l 355 610 l 399 610 b 421 610 427 598 422 580 l 355 353 b 348 329 341 325 325 325 z"},"X":{"x_min":0,"x_max":474,"ha":474,"o":"m 752 1029 l 582 1029 l 457 602 b 451 578 440 574 423 574 l 394 574 b 377 574 367 578 373 599 l 500 1029 l 328 1029 l 201 597 b 188 553 203 518 255 514 b 184 511 165 469 152 429 l 25 0 l 195 0 l 324 433 b 329 451 337 455 361 455 l 386 455 b 409 455 410 442 406 428 l 280 0 l 449 0 l 574 421 b 588 467 570 511 516 514 b 573 513 607 535 619 575 z"},"*":{"x_min":0,"x_max":773,"ha":773,"o":"m 386 3 b 581 3 740 162 740 357 b 740 552 581 711 386 711 b 191 711 33 552 33 357 b 33 162 191 3 386 3 z m 386 51 b 218 51 80 189 80 357 b 80 525 218 662 386 662 b 556 662 691 525 691 357 b 691 189 556 51 386 51 z m 386 72 b 542 72 670 200 670 357 b 670 513 542 639 386 639 b 230 639 101 513 101 357 b 101 200 230 72 386 72 z m 386 116 b 307 116 253 178 226 223 b 334 196 440 195 546 223 b 519 178 464 116 386 116 z m 216 238 l 161 324 l 611 324 l 557 238 b 442 212 329 212 216 238 z m 349 357 l 387 448 l 425 357 z m 294 427 l 220 519 b 215 525 270 563 278 553 b 300 521 308 478 327 441 b 328 438 299 421 294 427 z m 480 427 b 473 421 443 438 448 441 b 464 478 470 521 495 553 b 503 563 557 525 552 519 z m 645 12 l 656 12 l 656 50 l 671 50 l 671 61 l 630 61 l 630 50 l 645 50 z m 676 12 l 685 12 l 685 50 l 695 12 l 704 12 l 714 50 l 714 12 l 723 12 l 723 61 l 709 61 l 700 23 l 691 61 l 676 61 z"},"Y":{"x_min":0,"x_max":473,"ha":473,"o":"m 260 1029 l 317 393 l 117 0 l 293 0 l 826 1029 l 648 1029 l 454 635 l 431 1029 z"},"c":{"x_min":0,"x_max":402,"ha":402,"o":"m 594 727 l 315 727 b 266 727 235 713 219 659 l 64 133 b 36 38 93 0 161 0 l 358 0 l 412 138 l 245 138 b 224 138 216 147 223 170 l 346 588 b 351 606 358 610 374 610 l 423 610 l 383 472 l 529 506 z"},"!":{"x_min":0,"x_max":219,"ha":219,"o":"m 107 182 l 218 182 l 416 727 l 233 727 z m 40 0 l 182 0 l 224 138 l 81 138 z"},"/":{"x_min":0,"x_max":773,"ha":773,"o":"m 386 3 b 581 3 740 162 740 357 b 740 552 581 711 386 711 b 191 711 33 552 33 357 b 33 162 191 3 386 3 z m 386 51 b 218 51 80 189 80 357 b 80 525 218 662 386 662 b 556 662 691 525 691 357 b 691 189 556 51 386 51 z m 386 72 b 542 72 670 200 670 357 b 670 513 542 639 386 639 b 230 639 101 513 101 357 b 101 200 230 72 386 72 z m 386 116 b 307 116 253 178 226 223 b 334 196 440 195 546 223 b 519 178 464 116 386 116 z m 216 238 l 161 324 l 611 324 l 557 238 b 442 212 329 212 216 238 z m 349 357 l 387 448 l 425 357 z m 294 427 l 220 519 b 215 525 270 563 278 553 b 300 521 308 478 327 441 b 328 438 299 421 294 427 z m 480 427 b 473 421 443 438 448 441 b 464 478 470 521 495 553 b 503 563 557 525 552 519 z m 645 12 l 656 12 l 656 50 l 671 50 l 671 61 l 630 61 l 630 50 l 645 50 z m 676 12 l 685 12 l 685 50 l 695 12 l 704 12 l 714 50 l 714 12 l 723 12 l 723 61 l 709 61 l 700 23 l 691 61 l 676 61 z"},"[":{"x_min":0,"x_max":380,"ha":380,"o":"m 49 82 b 33 26 71 0 99 0 l 333 0 l 418 155 l 239 155 l 326 449 l 487 449 l 530 597 l 369 597 l 454 884 l 613 884 l 655 1029 l 328 1029 z"},"6":{"x_min":0,"x_max":424,"ha":424,"o":"m 506 366 b 526 443 502 481 426 481 l 316 481 l 343 574 b 347 589 356 596 371 596 l 543 596 l 580 727 l 350 727 b 279 727 229 695 208 622 l 65 135 b 39 50 75 0 152 0 l 295 0 b 368 0 411 41 433 116 z m 295 146 b 291 131 285 121 267 121 l 238 121 b 223 121 211 124 216 142 l 287 384 l 338 384 b 359 384 363 378 357 359 z"},"r":{"x_min":0,"x_max":425,"ha":425,"o":"m 267 310 l 317 310 b 335 310 337 297 333 285 l 249 0 l 400 0 l 478 265 b 494 317 472 341 449 345 b 486 345 507 367 513 388 l 586 635 b 600 683 579 727 514 727 l 239 727 l 25 0 l 176 0 z m 298 417 l 355 610 l 402 610 b 425 610 431 599 425 580 l 385 445 b 378 423 365 417 350 417 z"},"2":{"x_min":0,"x_max":413,"ha":413,"o":"m 448 348 b 477 371 507 408 519 447 l 570 622 b 591 691 557 727 493 727 l 244 727 l 180 510 l 319 510 l 343 592 b 347 606 353 610 363 610 l 402 610 b 416 610 419 604 415 591 l 385 484 b 379 463 356 444 333 426 l 174 294 b 84 220 55 101 40 0 l 379 0 l 429 138 l 237 138 b 240 166 252 188 332 253 z"},"{":{"x_min":0,"x_max":365,"ha":365,"o":"m 25 0 l 193 0 l 325 449 l 477 449 l 521 597 l 369 597 l 453 884 l 613 884 l 655 1029 l 275 1029 l 290 900 z"},"9":{"x_min":0,"x_max":426,"ha":426,"o":"m 128 349 b 107 277 131 231 203 231 l 319 231 l 298 163 b 291 140 281 138 265 138 l 102 138 l 62 0 l 290 0 b 369 0 408 21 429 94 l 580 607 b 604 691 569 727 492 727 l 346 727 b 274 727 231 702 209 627 z m 350 592 b 355 608 363 616 380 616 l 408 616 b 423 616 432 613 427 595 l 350 335 l 296 335 b 284 335 275 341 280 356 z"}," ":{"x_min":0,"x_max":125,"ha":125,"o":""},"I":{"x_min":0,"x_max":377,"ha":377,"o":"m 355 860 l 147 155 l 70 155 l 25 0 l 360 0 l 406 155 l 316 155 l 524 860 z m 621 884 l 664 1029 l 321 1029 l 261 884 z"},"H":{"x_min":0,"x_max":472,"ha":472,"o":"m 587 517 l 480 684 l 453 593 l 368 593 l 496 1029 l 328 1029 l 25 0 l 193 0 l 330 461 l 414 461 l 388 372 z m 376 333 l 277 0 l 447 0 l 592 492 z m 605 535 l 750 1029 l 581 1029 l 488 714 z"},"4":{"x_min":0,"x_max":455,"ha":455,"o":"m 521 263 l 459 263 l 596 727 l 386 727 l 104 307 l 60 154 l 277 154 l 231 0 l 381 0 l 427 154 l 489 154 z m 230 263 l 234 276 l 385 527 l 308 263 z"},"~":{"x_min":0,"x_max":365,"ha":365,"o":"m 655 1029 l 328 1029 l 25 0 l 195 0 l 325 449 l 477 449 l 521 597 l 369 597 l 453 884 l 613 884 z"},"D":{"x_min":0,"x_max":472,"ha":472,"o":"m 328 171 b 323 155 312 145 295 145 l 235 145 l 446 860 l 278 860 l 26 0 l 312 0 b 382 0 452 24 477 109 l 713 910 b 733 978 700 1029 624 1029 l 297 1029 l 205 884 l 499 884 b 523 884 534 874 527 849 z"},"^":{"x_min":0,"x_max":380,"ha":380,"o":"m 25 0 l 333 0 l 418 155 l 239 155 l 325 449 l 487 449 l 530 597 l 369 597 l 453 884 l 613 884 l 655 1029 l 327 1029 z"},"0":{"x_min":0,"x_max":424,"ha":424,"o":"m 560 548 b 599 681 542 742 413 742 b 308 742 232 703 200 596 l 77 177 b 34 34 135 -11 216 -13 b 356 -17 418 64 444 153 z m 290 141 b 282 113 268 102 242 103 b 216 104 209 119 217 145 l 346 581 b 353 606 364 623 392 623 b 422 623 426 606 418 578 z"},"F":{"x_min":0,"x_max":365,"ha":365,"o":"m 25 0 l 193 0 l 325 449 l 477 449 l 521 597 l 369 597 l 446 860 l 278 860 z m 655 1029 l 297 1029 l 205 884 l 613 884 z"},"`":{"x_min":0,"x_max":773,"ha":773,"o":"m 386 3 b 581 3 740 162 740 357 b 740 552 581 711 386 711 b 191 711 33 552 33 357 b 33 162 191 3 386 3 z m 386 51 b 218 51 80 189 80 357 b 80 525 218 662 386 662 b 556 662 691 525 691 357 b 691 189 556 51 386 51 z m 386 72 b 542 72 670 200 670 357 b 670 513 542 639 386 639 b 230 639 101 513 101 357 b 101 200 230 72 386 72 z m 386 116 b 307 116 253 178 226 223 b 334 196 440 195 546 223 b 519 178 464 116 386 116 z m 216 238 l 161 324 l 611 324 l 557 238 b 442 212 329 212 216 238 z m 349 357 l 387 448 l 425 357 z m 294 427 l 220 519 b 215 525 270 563 278 553 b 300 521 308 478 327 441 b 328 438 299 421 294 427 z m 480 427 b 473 421 443 438 448 441 b 464 478 470 521 495 553 b 503 563 557 525 552 519 z m 645 12 l 656 12 l 656 50 l 671 50 l 671 61 l 630 61 l 630 50 l 645 50 z m 676 12 l 685 12 l 685 50 l 695 12 l 704 12 l 714 50 l 714 12 l 723 12 l 723 61 l 709 61 l 700 23 l 691 61 l 676 61 z"},"k":{"x_min":0,"x_max":424,"ha":424,"o":"m 462 727 l 379 445 b 372 423 360 417 343 417 l 298 417 l 389 727 l 239 727 l 25 0 l 175 0 l 267 310 l 314 310 b 334 310 338 300 332 281 l 249 0 l 399 0 l 481 278 b 492 316 483 360 432 363 b 485 362 509 391 518 418 l 609 727 z"},"u":{"x_min":0,"x_max":423,"ha":423,"o":"m 390 727 l 239 727 l 65 135 b 36 39 88 0 162 0 l 249 0 l 232 -57 l 406 28 l 612 727 l 462 727 l 284 122 l 245 122 b 223 122 213 130 220 152 l 389 727 z"},"]":{"x_min":0,"x_max":380,"ha":380,"o":"m 239 155 l 325 449 l 487 449 l 530 597 l 369 597 l 446 860 l 278 860 l 49 82 b 33 26 71 1 99 0 l 333 0 l 418 155 z m 655 1029 l 297 1029 l 205 884 l 613 884 z"},"U":{"x_min":0,"x_max":469,"ha":469,"o":"m 328 1029 l 76 173 b 39 46 96 0 200 0 l 276 0 l 252 -81 l 447 18 l 745 1029 l 577 1029 l 316 145 l 279 145 b 248 145 239 156 248 187 l 496 1029 z"},"o":{"x_min":0,"x_max":424,"ha":424,"o":"m 373 610 l 411 610 b 425 610 429 602 426 591 l 293 139 b 290 128 281 121 269 121 l 230 121 b 218 121 213 128 216 139 l 350 592 b 353 602 358 610 373 610 z m 312 727 b 263 727 229 698 218 656 l 54 99 b 36 37 75 0 126 0 l 305 0 b 355 0 404 17 422 77 l 589 644 b 601 687 577 727 530 727 z"},"N":{"x_min":0,"x_max":469,"ha":469,"o":"m 446 860 l 278 860 l 25 0 l 193 0 z m 274 0 l 442 0 l 710 910 b 730 978 698 1029 622 1029 l 297 1029 l 205 884 l 496 884 b 520 884 531 874 524 849 z"},"+":{"x_min":0,"x_max":773,"ha":773,"o":"m 386 3 b 581 3 740 162 740 357 b 740 552 581 711 386 711 b 191 711 33 552 33 357 b 33 162 191 3 386 3 z m 386 51 b 218 51 80 189 80 357 b 80 525 218 662 386 662 b 556 662 691 525 691 357 b 691 189 556 51 386 51 z m 386 72 b 542 72 670 200 670 357 b 670 513 542 639 386 639 b 230 639 101 513 101 357 b 101 200 230 72 386 72 z m 386 116 b 307 116 253 178 226 223 b 334 196 440 195 546 223 b 519 178 464 116 386 116 z m 216 238 l 161 324 l 611 324 l 557 238 b 442 212 329 212 216 238 z m 349 357 l 387 448 l 425 357 z m 294 427 l 220 519 b 215 525 270 563 278 553 b 300 521 308 478 327 441 b 328 438 299 421 294 427 z m 480 427 b 473 421 443 438 448 441 b 464 478 470 521 495 553 b 503 563 557 525 552 519 z m 645 12 l 656 12 l 656 50 l 671 50 l 671 61 l 630 61 l 630 50 l 645 50 z m 676 12 l 685 12 l 685 50 l 695 12 l 704 12 l 714 50 l 714 12 l 723 12 l 723 61 l 709 61 l 700 23 l 691 61 l 676 61 z"},"G":{"x_min":0,"x_max":479,"ha":479,"o":"m 437 1029 b 369 1029 323 1009 300 933 l 81 190 b 41 54 123 0 219 0 l 286 0 l 262 -81 l 457 18 l 644 655 l 442 655 l 395 507 l 433 507 l 326 145 l 282 145 b 252 145 240 155 248 184 l 445 852 b 452 878 463 884 486 884 l 662 884 l 706 1029 z"},"q":{"x_min":0,"x_max":424,"ha":424,"o":"m 121 -87 l 253 -87 l 280 0 l 308 0 b 358 0 404 17 422 77 l 589 644 b 601 687 577 727 530 727 l 312 727 b 263 727 229 698 218 656 l 54 99 b 36 37 75 0 126 0 l 149 0 z m 373 610 l 411 610 b 425 610 429 602 426 591 l 293 139 b 290 128 281 121 269 121 l 230 121 b 218 121 213 128 216 139 l 350 592 b 353 602 358 610 373 610 z"},"d":{"x_min":0,"x_max":424,"ha":424,"o":"m 403 610 b 426 610 428 599 422 578 l 295 146 b 290 129 283 121 259 121 l 211 121 l 355 610 z m 25 0 l 256 0 b 360 0 403 12 428 98 l 589 645 b 601 686 581 727 527 727 l 239 727 z"},"1":{"x_min":0,"x_max":253,"ha":253,"o":"m 438 727 l 275 727 l 174 596 l 242 596 l 67 0 l 223 0 z"},"5":{"x_min":0,"x_max":389,"ha":389,"o":"m 514 596 l 553 727 l 239 727 l 115 305 l 288 305 b 298 305 302 300 300 292 l 260 157 b 254 141 253 138 228 138 l 86 138 l 45 0 l 298 0 b 341 0 370 19 379 51 l 466 347 b 482 401 455 434 405 434 l 303 434 l 351 596 z"}}}
